<svg xmlns="http://www.w3.org/2000/svg" fill="none" viewBox="0 0 642 642"><g clip-path="url(#a)"><path fill="url(#b)" d="M494.049 479.087c20.014-73.866 4.162-169.702-52.867-261.585-27.344-44.255-61.488-93.196-120.035-132.204-58.549 39.008-92.822 87.949-120.167 132.204-57.03 91.884-72.882 187.72-52.866 261.588 10.706 39.512 36.501 73.587 71.41 95.196.865.524 1.699 1.089 2.568 1.607a433.181 433.181 0 0 0 12.381 7.099c.493.272.995.557 1.482.825 1.267.692 2.442 1.264 3.683 1.924 2.475 1.312 4.973 2.655 7.357 3.843a256.153 256.153 0 0 0 12.098 5.673c.437.19.865.367 1.299.553 3.494 1.497 6.915 2.879 10.242 4.094l.063.022c2.094.764 4.106 1.369 6.143 2.024 1.318.425 2.674.925 3.971 1.308.169.05.342.107.508.156.885.258 1.735.428 2.612.666 2.284.618 4.568 1.242 6.804 1.737.327.073.657.149.984.219 3.051.653 6.066 1.195 9.061 1.629.278.041.559.076.838.115 3.086.427 6.155.761 9.218.975 3.395.15 6.754.364 10.245.364 3.49 0 6.845-.214 10.242-.364 3.06-.214 6.131-.548 9.214-.975.284-.039.566-.074.848-.115a137.96 137.96 0 0 0 9.053-1.628c.332-.071.664-.148.996-.221.283-.063.577-.155.861-.22 2.812-.639 5.644-1.337 8.537-2.18.18-.052.361-.112.538-.165 2.368-.699 4.807-1.547 7.242-2.385.954-.33 1.869-.582 2.835-.934l.087-.031c3.319-1.212 6.734-2.592 10.219-4.084.443-.19.882-.37 1.327-.565a253.79 253.79 0 0 0 12.105-5.677c1.702-.849 3.506-1.835 5.254-2.745 1.919-1.002 3.779-1.927 5.76-3.009.515-.281 1.041-.583 1.558-.868a432.525 432.525 0 0 0 12.313-7.06c.865-.516 1.695-1.077 2.555-1.598 34.915-21.611 60.716-55.69 71.424-95.208Z"/><path fill="url(#c)" d="M494.049 479.087c20.014-73.866 4.162-169.702-52.867-261.585-27.344-44.255-61.488-93.196-120.035-132.204-58.549 39.008-92.822 87.949-120.167 132.204-57.03 91.884-72.882 187.72-52.866 261.588 10.706 39.512 36.501 73.587 71.41 95.196.865.524 1.699 1.089 2.568 1.607a433.181 433.181 0 0 0 12.381 7.099c.493.272.995.557 1.482.825 1.267.692 2.442 1.264 3.683 1.924 2.475 1.312 4.973 2.655 7.357 3.843a256.153 256.153 0 0 0 12.098 5.673c.437.19.865.367 1.299.553 3.494 1.497 6.915 2.879 10.242 4.094l.063.022c2.094.764 4.106 1.369 6.143 2.024 1.318.425 2.674.925 3.971 1.308.169.05.342.107.508.156.885.258 1.735.428 2.612.666 2.284.618 4.568 1.242 6.804 1.737.327.073.657.149.984.219 3.051.653 6.066 1.195 9.061 1.629.278.041.559.076.838.115 3.086.427 6.155.761 9.218.975 3.395.15 6.754.364 10.245.364 3.49 0 6.845-.214 10.242-.364 3.06-.214 6.131-.548 9.214-.975.284-.039.566-.074.848-.115a137.96 137.96 0 0 0 9.053-1.628c.332-.071.664-.148.996-.221.283-.063.577-.155.861-.22 2.812-.639 5.644-1.337 8.537-2.18.18-.052.361-.112.538-.165 2.368-.699 4.807-1.547 7.242-2.385.954-.33 1.869-.582 2.835-.934l.087-.031c3.319-1.212 6.734-2.592 10.219-4.084.443-.19.882-.37 1.327-.565a253.79 253.79 0 0 0 12.105-5.677c1.702-.849 3.506-1.835 5.254-2.745 1.919-1.002 3.779-1.927 5.76-3.009.515-.281 1.041-.583 1.558-.868a432.525 432.525 0 0 0 12.313-7.06c.865-.516 1.695-1.077 2.555-1.598 34.915-21.611 60.716-55.69 71.424-95.208Z"/><path fill="url(#d)" d="M494.049 479.087c20.014-73.866 4.162-169.702-52.867-261.585-27.344-44.255-61.488-93.196-120.035-132.204-58.549 39.008-92.822 87.949-120.167 132.204-57.03 91.884-72.882 187.72-52.866 261.588 10.706 39.512 36.501 73.587 71.41 95.196.865.524 1.699 1.089 2.568 1.607a433.181 433.181 0 0 0 12.381 7.099c.493.272.995.557 1.482.825 1.267.692 2.442 1.264 3.683 1.924 2.475 1.312 4.973 2.655 7.357 3.843a256.153 256.153 0 0 0 12.098 5.673c.437.19.865.367 1.299.553 3.494 1.497 6.915 2.879 10.242 4.094l.063.022c2.094.764 4.106 1.369 6.143 2.024 1.318.425 2.674.925 3.971 1.308.169.05.342.107.508.156.885.258 1.735.428 2.612.666 2.284.618 4.568 1.242 6.804 1.737.327.073.657.149.984.219 3.051.653 6.066 1.195 9.061 1.629.278.041.559.076.838.115 3.086.427 6.155.761 9.218.975 3.395.15 6.754.364 10.245.364 3.49 0 6.845-.214 10.242-.364 3.06-.214 6.131-.548 9.214-.975.284-.039.566-.074.848-.115a137.96 137.96 0 0 0 9.053-1.628c.332-.071.664-.148.996-.221.283-.063.577-.155.861-.22 2.812-.639 5.644-1.337 8.537-2.18.18-.052.361-.112.538-.165 2.368-.699 4.807-1.547 7.242-2.385.954-.33 1.869-.582 2.835-.934l.087-.031c3.319-1.212 6.734-2.592 10.219-4.084.443-.19.882-.37 1.327-.565a253.79 253.79 0 0 0 12.105-5.677c1.702-.849 3.506-1.835 5.254-2.745 1.919-1.002 3.779-1.927 5.76-3.009.515-.281 1.041-.583 1.558-.868a432.525 432.525 0 0 0 12.313-7.06c.865-.516 1.695-1.077 2.555-1.598 34.915-21.611 60.716-55.69 71.424-95.208Z"/><path fill="url(#e)" d="M321.145 85.298a350.383 350.383 0 0 0-27.486-16.527C171.815 2.849 29.119 32.658 3.862 182.784c-22.708 140.203 56.852 280.266 182.476 369.7 5.312 3.785 10.723 7.46 16.186 11.067.834.548 1.663 1.104 2.5 1.645 4.527 2.948 9.138 5.793 13.764 8.611-34.52-21.634-60.04-55.465-70.666-94.69-20.016-73.866-4.164-169.704 52.865-261.587 27.346-44.254 61.618-93.197 120.166-132.203l-.008-.03Z"/><path fill="url(#f)" d="M321.145 85.298a350.383 350.383 0 0 0-27.486-16.527C171.815 2.849 29.119 32.658 3.862 182.784c-22.708 140.203 56.852 280.266 182.476 369.7 5.312 3.785 10.723 7.46 16.186 11.067.834.548 1.663 1.104 2.5 1.645 4.527 2.948 9.138 5.793 13.764 8.611-34.52-21.634-60.04-55.465-70.666-94.69-20.016-73.866-4.164-169.704 52.865-261.587 27.346-44.254 61.618-93.197 120.166-132.203l-.008-.03Z"/><path fill="url(#g)" d="M321.145 85.298a350.383 350.383 0 0 0-27.486-16.527C171.815 2.849 29.119 32.658 3.862 182.784c-22.708 140.203 56.852 280.266 182.476 369.7 5.312 3.785 10.723 7.46 16.186 11.067.834.548 1.663 1.104 2.5 1.645 4.527 2.948 9.138 5.793 13.764 8.611-34.52-21.634-60.04-55.465-70.666-94.69-20.016-73.866-4.164-169.704 52.865-261.587 27.346-44.254 61.618-93.197 120.166-132.203l-.008-.03Z"/><path fill="url(#h)" d="M320.854 85.3a350.22 350.22 0 0 1 27.487-16.527C470.184 2.85 612.88 32.66 638.137 182.786c22.708 140.203-56.851 280.266-182.476 369.7-5.312 3.785-10.723 7.46-16.186 11.067-.833.548-1.663 1.104-2.5 1.645-4.526 2.948-9.138 5.793-13.764 8.611 34.52-21.634 60.04-55.465 70.667-94.69 20.016-73.866 4.163-169.704-52.866-261.587-27.346-44.254-61.618-93.197-120.165-132.203l.007-.03Z"/><path fill="url(#i)" d="M320.854 85.3a350.22 350.22 0 0 1 27.487-16.527C470.184 2.85 612.88 32.66 638.137 182.786c22.708 140.203-56.851 280.266-182.476 369.7-5.312 3.785-10.723 7.46-16.186 11.067-.833.548-1.663 1.104-2.5 1.645-4.526 2.948-9.138 5.793-13.764 8.611 34.52-21.634 60.04-55.465 70.667-94.69 20.016-73.866 4.163-169.704-52.866-261.587-27.346-44.254-61.618-93.197-120.165-132.203l.007-.03Z"/></g><defs><radialGradient id="c" cx="0" cy="0" r="1" gradientTransform="matrix(-321.55756 -20.47862 49.95918 -784.46477 359.485 454.39)" gradientUnits="userSpaceOnUse"><stop offset=".327" stop-color="#E76580" stop-opacity="0"/><stop offset=".652" stop-color="#EF97A9"/></radialGradient><radialGradient id="d" cx="0" cy="0" r="1" gradientTransform="rotate(-23.607 1165.102 -163.776) scale(558.789 1126.82)" gradientUnits="userSpaceOnUse"><stop offset=".411" stop-color="#E76580" stop-opacity="0"/><stop offset=".601" stop-color="#DF415F"/></radialGradient><radialGradient id="e" cx="0" cy="0" r="1" gradientTransform="rotate(-122.87 276.704 108.977) scale(417.132 378.322)" gradientUnits="userSpaceOnUse"><stop offset=".488" stop-color="#DB3152"/><stop offset="1" stop-color="#FBA5B8"/></radialGradient><radialGradient id="f" cx="0" cy="0" r="1" gradientTransform="matrix(15.17109 -424.79218 435.76718 15.56305 238.945 354.261)" gradientUnits="userSpaceOnUse"><stop offset=".4" stop-color="#DB3152"/><stop offset=".944" stop-color="#F8ABC5" stop-opacity="0"/></radialGradient><radialGradient id="g" cx="0" cy="0" r="1" gradientTransform="matrix(-212.39408 -257.91132 262.12531 -215.86437 288.252 358.054)" gradientUnits="userSpaceOnUse"><stop offset=".234" stop-color="#DB3152"/><stop offset=".938" stop-color="#DB3152" stop-opacity="0"/></radialGradient><radialGradient id="i" cx="0" cy="0" r="1" gradientTransform="matrix(242.73792 -170.67503 174.18418 247.72871 364.106 320.126)" gradientUnits="userSpaceOnUse"><stop offset=".166" stop-color="#EC748E" stop-opacity="0"/><stop offset=".907" stop-color="#EC748E"/></radialGradient><linearGradient id="b" x1="139.849" x2="502.313" y1="347.208" y2="347.208" gradientUnits="userSpaceOnUse"><stop stop-color="#EF97A9"/><stop offset=".22" stop-color="#E76580"/><stop offset=".896" stop-color="#DF415F"/></linearGradient><linearGradient id="h" x1="283.537" x2="650.836" y1="356.533" y2="223.647" gradientUnits="userSpaceOnUse"><stop offset=".596" stop-color="#DF415F"/><stop offset=".993" stop-color="#EC748E"/></linearGradient><clipPath id="a"><path fill="#fff" d="M642 0H0v642h642z"/></clipPath></defs></svg>
